<svg xmlns="http://www.w3.org/2000/svg" viewBox="0 0 16 16" width="16" height="16">
  <style>rect{fill:#b05060}</style>
  <!-- row 0 -->
  <rect x="2" y="1" width="2" height="2"/>
  <rect x="4" y="1" width="2" height="2"/>
  <rect x="8" y="1" width="2" height="2"/>
  <rect x="10" y="1" width="2" height="2"/>
  <!-- row 1 -->
  <rect x="0" y="3" width="2" height="2"/>
  <rect x="2" y="3" width="2" height="2"/>
  <rect x="4" y="3" width="2" height="2"/>
  <rect x="6" y="3" width="2" height="2"/>
  <rect x="8" y="3" width="2" height="2"/>
  <rect x="10" y="3" width="2" height="2"/>
  <rect x="12" y="3" width="2" height="2"/>
  <!-- row 2 -->
  <rect x="0" y="5" width="2" height="2"/>
  <rect x="2" y="5" width="2" height="2"/>
  <rect x="4" y="5" width="2" height="2"/>
  <rect x="6" y="5" width="2" height="2"/>
  <rect x="8" y="5" width="2" height="2"/>
  <rect x="10" y="5" width="2" height="2"/>
  <rect x="12" y="5" width="2" height="2"/>
  <!-- row 3 -->
  <rect x="2" y="7" width="2" height="2"/>
  <rect x="4" y="7" width="2" height="2"/>
  <rect x="6" y="7" width="2" height="2"/>
  <rect x="8" y="7" width="2" height="2"/>
  <rect x="10" y="7" width="2" height="2"/>
  <!-- row 4 -->
  <rect x="4" y="9" width="2" height="2"/>
  <rect x="6" y="9" width="2" height="2"/>
  <rect x="8" y="9" width="2" height="2"/>
  <!-- row 5 -->
  <rect x="6" y="11" width="2" height="2"/>
</svg>
